<?xml version="1.0" encoding="UTF-8" standalone="no"?>
<!DOCTYPE svg PUBLIC "-//W3C//DTD SVG 1.1//EN" "http://www.w3.org/Graphics/SVG/1.1/DTD/svg11.dtd">
<!-- Created with Vectornator (http://vectornator.io/) -->
<svg height="100%" stroke-miterlimit="10" style="fill-rule:nonzero;clip-rule:evenodd;stroke-linecap:round;stroke-linejoin:round;" version="1.1" viewBox="0 0 5798.69 1625.86" width="100%" xml:space="preserve" xmlns="http://www.w3.org/2000/svg" xmlns:vectornator="http://vectornator.io" xmlns:xlink="http://www.w3.org/1999/xlink">
<defs/>
<clipPath id="ArtboardFrame">
<rect height="1625.86" width="5798.69" x="0" y="0"/>
</clipPath>
<g clip-path="url(#ArtboardFrame)" id="g10" vectornator:layerName="g10">
<g opacity="1" vectornator:layerName="path">
<clipPath clip-rule="nonzero" id="ClipPath">
<path d="M9.09495e-13 1625.86L5798.69 1625.86L5798.69 2.27374e-13L9.09495e-13-1.16488e-12L9.09495e-13 1625.86Z"/>
</clipPath>
<g clip-path="url(#ClipPath)">
<path d="M5024.93 1042.84L4964.69 1043.67C4990.29 980.063 5023.76 911.326 5051.79 845.402C5079.97 779.103 5105.14 705.358 5133.34 640.673L5178.5 641.207C5231.35 773.354 5281.93 920.283 5342.09 1042.55L5238.03 1044.42C5228.57 1004.63 5216.73 960.134 5198.39 928.374C5152.81 924.709 5110.4 921.647 5064.95 929.219L5024.93 1042.84ZM3974.85 1046.89C3979.84 908.881 3980.33 776.45 3974.71 638.408C4115.51 647.4 4358.77 581.683 4350.23 844.862C4341.93 1100.77 4095.63 1038.2 3974.85 1046.89M3186.68 1044.42L3134.07 1044.12L3192.92 643.355L3234.72 640.736C3248.22 657.437 3330.96 850.105 3371.1 913.543C3405.62 872.736 3481.31 683.989 3510.13 641.893L3553.86 641.561L3604.22 1044.98L3511.18 1043.77L3481.85 791.454L3372.39 1017.75C3340.43 1091.59 3317.05 996.924 3278.74 918.163C3256.82 873.116 3236.77 830.938 3213.31 788.185L3186.68 1044.42ZM3675.95 638.582L3898.97 637.467L3899.33 690.112L3766.03 686.579L3766.23 816.024L3896.21 810.42L3895.91 860.78L3766.04 857.171L3765.99 999.854L3898.84 993.786L3899.14 1045.84L3677.05 1047.46L3681.09 838.855L3675.96 638.582L3675.95 638.582ZM4426.4 641.733L4518.94 640.909C4525.93 768.754 4513.6 909.865 4520.52 1044.57L4426.05 1044.16C4430.78 907.191 4424.33 775.487 4426.4 641.733M4927.75 725.461C4905.84 710.817 4904.26 693.035 4865.25 678.939C4686.11 614.178 4628.08 930.75 4767.92 999.189C4863.06 1045.75 4910.66 972.547 4943.82 975.256L4929.53 1027.19C4898.62 1067.75 4579.54 1088.3 4595.32 834.042C4600.82 745.341 4648.7 687.875 4707.31 658.857C4775.08 625.303 4875.71 626.037 4943.77 658.774L4927.75 725.461L4927.75 725.461ZM2714.95 1235.21C2963.87 1245.67 3235.29 1235.86 3486.69 1235.86C4006.24 1235.86 4525.78 1235.86 5045.33 1235.86C5159.24 1235.86 5309.72 1257.24 5388.48 1194.2C5486.33 1115.88 5443.68 1008.42 5457.79 870.062C5561.44 866.695 5635.87 857.96 5699.08 917.574C5764.81 979.565 5750.35 1056.03 5750.35 1161.44C5750.35 1260.5 5765.19 1351.21 5707.46 1413.74C5640.57 1486.19 5581.79 1459.42 5474.09 1471.26L5474.05 1501.52C5596.07 1511.63 5663.81 1504.95 5730.81 1437.02C5798.71 1368.18 5784.05 1271.76 5784.05 1161.44C5784.05 1041.26 5797.35 970.476 5726.15 896.413C5654.05 821.413 5578.03 840.844 5458.42 835.78C5440.3 722.067 5488.34 624.907 5412.59 535.93C5344.61 456.089 5253.85 471.01 5127.37 471.01L3035.96 471.114C3037.13 505.909 3050.72 550.982 3053.95 592.323C3075.12 863.855 2942.15 1095.22 2714.95 1235.21M4065.42 1003.77C4196.95 1009.45 4249.42 979.142 4254.4 844.917C4259.49 707.755 4198.84 674.603 4066.96 681.404L4065.42 1003.77ZM5082.96 883.134L5179.26 884.858L5135.34 761.218C5122.04 771.151 5110.96 807.768 5105.08 822.335C5097.36 841.461 5087.34 863.509 5082.96 883.134" fill="#224a84" fill-rule="nonzero" opacity="1" stroke="none" vectornator:layerName="path"/>
<path d="M1624.45 897.521C1562.84 1145.21 1123.64 1087.12 1201.88 786.315C1265.57 541.444 1699.09 597.442 1624.45 897.521M1032.49 640.459L1123.27 641.381C1126.08 693.388 1121.09 751.049 1120.99 803.681C1120.74 930.757 1155.93 1085.58 1040.53 1129.71C1005.7 1143.04 995.538 1144.2 984.72 1114.52C1019.88 1090.33 1031.19 1097.13 1035.77 1038.24C1044.66 924.045 1025.88 745.279 1032.49 640.459M180.292 1044.74C188.95 921.336 188.853 761.308 180.32 640.577L407.236 637.418L407.36 683.719L270.234 680.802L270.455 817.285L400.225 812.118L400.779 858.882L269.292 856.235L274.697 1043.83L180.292 1044.74ZM473.488 1044.76C482.402 908.258 469.488 772.495 475.183 640.93L567.153 640.763C571.582 772.294 562.149 908.361 568.246 1043.99L473.488 1044.76ZM751.43 1003.12C822.015 1009.23 886.08 999.105 952.055 994.894L953.716 1048.51C908.523 1050.91 847.31 1043.24 797.176 1043.05C746.136 1042.85 682.161 1047.53 633.391 1043.88C630.955 1016.22 713.865 894.805 732.952 862.56C764.988 808.446 812.354 737.361 837.455 681.342L653.925 684.944L653.904 637.564L952.56 642.232C959.024 668.534 881.429 776.228 855.816 821.289C827.53 871.052 770.587 953.622 751.43 1003.12M307.384 1235.97C308.374 1316.76 303.667 1362.57 345.503 1419.89C426.884 1531.38 563.547 1502.85 709.283 1502.85C833.42 1502.85 1783.02 1507.5 1838.74 1501.16L1837.64 1469.89C1700.92 1463.36 1549.87 1469.29 1412.43 1469.29L545.214 1469.33C363.504 1469.82 342.652 1375.46 340.922 1237.49L2048.82 1235.82C1944.62 1182.55 1829 1052.03 1776.7 943.322C1744.69 876.774 1721.39 809.596 1712.16 726.631C1695.67 578.428 1720.74 569.353 1728.02 471.052C1265.42 470.22 802.74 471.01 340.133 471.01C225.817 471.01 124.158 456.144 59.0345 533.977C-2.98203 608.089 14.5758 719.635 14.5758 833.003C14.5758 926.69-0.386757 1079.33 41.8572 1149.2C97.1884 1240.72 176.818 1235.29 307.384 1235.97M1380.52 677.089C1244.21 717.1 1255.62 1058.66 1442.64 1009.43C1583.75 972.291 1568.93 621.79 1380.52 677.089" fill="#224a84" fill-rule="nonzero" opacity="1" stroke="none" vectornator:layerName="path"/>
<path d="M2097.2 1207.64C2051.13 1190.78 1964.01 1118.09 1939.61 1091.28C1791.27 928.228 1731.84 706.854 1800.77 482.814C1873.62 246.034 2129.07 19.6664 2457.04 63.0987C2903.51 122.221 3157.55 630.817 2869.29 1036.07C2819.25 1106.41 2676.47 1234.24 2548.61 1253.56L2573.84 1089.85C2588.53 1120.23 2580.62 1149.53 2607.76 1169.32L2610.69 1135.75C2575.15 908.978 2619.99 941.604 2668.49 694.441C2731.57 373.089 2477.28 360.975 2457.92 372.071C2452.93 400.964 2479.32 425.79 2497.04 433.729C2519.68 443.877 2546.05 446.946 2571.55 458.7C2716.99 525.768 2600.75 691.712 2565.87 908.645C2476.78 871.198 2486.87 845.402 2391.26 874.489C2336.1 891.272 2320.99 820.229 2224.5 906.748C2179.26 947.312 2211.36 1039.83 2218.45 1104.62C2225.7 1170.83 2224.44 1208.7 2214.35 1272.13C2212.3 1285.02 2209.39 1302.51 2215.18 1314.24C2263.92 1277.16 2247.29 1118.22 2236.5 1052.64C2224.53 980.022 2211.33 937.774 2299.79 899.425C2327.41 887.455 2327.27 901.4 2352.14 906.817C2354.19 907.26 2546.95 886.105 2558.93 998.371C2566.51 1069.39 2524.03 1180.7 2527.06 1272.38C2643.95 1262.08 2807.69 1142.7 2881.63 1048.48C3194.43 649.907 2944.84 64.7198 2444.33 16.0573C2094.85-17.9195 1837.98 220.612 1765 488.023C1718.34 659.037 1752.5 836.937 1827.54 968.779C1864.54 1033.77 1913.12 1090.11 1959.72 1129.89C1981.62 1148.58 2098.48 1241.72 2132.22 1232.75L2154.67 1002.93C2155.37 932.225 2138.4 848.845 2127.92 779.699C2108.17 649.264 2077.15 474.453 2237.55 423.817C2258.56 461.895 2259.13 487.988 2313.95 484.608C2530.04 471.28 2427.55 17.415 2224.86 174.063C2149.88 232.007 2203.01 309.569 2216 381.409C2155.52 426.608 2123.45 433.652 2098.77 522.887C2079.16 593.812 2086.07 679.264 2095.11 752.628C2104.18 826.318 2117.18 906.512 2120.72 979.377C2123.9 1044.82 2106.5 1141.33 2097.2 1207.64" fill="#224a84" fill-rule="nonzero" opacity="1" stroke="none" vectornator:layerName="path"/>
<path d="M2356.73 573.807C2257.73 607.5 2298.29 797.612 2318.11 811.958C2343.21 830.128 2386.87 823.048 2409.56 810.365C2503.86 757.664 2502.7 524.127 2356.73 573.807" fill="#224a84" fill-rule="nonzero" opacity="1" stroke="none" vectornator:layerName="path"/>
<path d="M2038.13 1528.32C2038.13 1530.88 2038.09 1533.07 2037.98 1534.84C2037.86 1536.61 2037.66 1538.18 2037.43 1539.43C2037.23 1540.73 2036.92 1541.82 2036.53 1542.76C2036.14 1543.65 2035.55 1544.69 2034.69 1545.84C2033.87 1546.98 2032.22 1548.49 2029.83 1550.32C2027.41 1552.09 2024.47 1553.86 2020.99 1555.53C2017.51 1557.15 2013.55 1558.55 2009.09 1559.65C2004.63 1560.74 1999.78 1561.31 1994.57 1561.31C1984.43 1561.31 1975.27 1559.23 1967.09 1555.06C1958.91 1550.89 1951.95 1544.64 1946.23 1536.35C1940.48 1528.06 1936.1 1517.75 1933.04 1505.29C1929.99 1492.88 1928.46 1478.45 1928.46 1461.98C1928.46 1445.2 1930.15 1430.29 1933.51 1417.26C1936.88 1404.24 1941.58 1393.29 1947.6 1384.43C1953.63 1375.57 1960.87 1368.9 1969.33 1364.31C1977.74 1359.73 1987.06 1357.43 1997.23 1357.43C2001.34 1357.43 2005.3 1357.9 2009.13 1358.84C2012.97 1359.73 2016.49 1360.93 2019.74 1362.44C2022.99 1363.9 2025.88 1365.62 2028.5 1367.54C2031.09 1369.52 2032.93 1371.19 2033.94 1372.55C2034.96 1373.95 2035.67 1375.1 2036.06 1375.99C2036.45 1376.93 2036.76 1378.07 2036.96 1379.48C2037.19 1380.94 2037.39 1382.61 2037.51 1384.53C2037.62 1386.46 2037.66 1388.81 2037.66 1391.67C2037.66 1394.7 2037.58 1397.3 2037.43 1399.44C2037.27 1401.58 2037 1403.3 2036.65 1404.6C2036.25 1405.9 2035.78 1406.89 2035.28 1407.47C2034.73 1408.09 2034.1 1408.4 2033.44 1408.4C2032.3 1408.4 2030.85 1407.52 2029.09 1405.75C2027.33 1403.97 2025.06 1401.99 2022.28 1399.8C2019.5 1397.62 2016.18 1395.63 2012.3 1393.86C2008.46 1392.09 2003.89 1391.21 1998.52 1391.21C1992.65 1391.21 1987.41 1392.82 1982.79 1396C1978.17 1399.23 1974.26 1403.77 1971.01 1409.71C1967.76 1415.7 1965.29 1422.89 1963.61 1431.34C1961.93 1439.73 1961.11 1449.26 1961.11 1459.84C1961.11 1471.41 1962.01 1481.47 1963.81 1489.97C1965.61 1498.41 1968.15 1505.45 1971.48 1510.92C1974.77 1516.39 1978.8 1520.51 1983.49 1523.17C1988.19 1525.88 1993.47 1527.23 1999.34 1527.23C2004.67 1527.23 2009.29 1526.4 2013.2 1524.73C2017.08 1523.06 2020.4 1521.18 2023.18 1519.2C2026 1517.17 2028.27 1515.35 2030.07 1513.73C2031.87 1512.12 2033.24 1511.28 2034.26 1511.28C2035 1511.28 2035.63 1511.49 2036.06 1511.91C2036.53 1512.33 2036.92 1513.11 2037.23 1514.36C2037.51 1515.56 2037.74 1517.28 2037.9 1519.47C2038.05 1521.71 2038.13 1524.63 2038.13 1528.32ZM2152.58 1480.95C2152.58 1485.64 2151.79 1489.08 2150.23 1491.32C2148.66 1493.56 2146.51 1494.71 2143.73 1494.71L2081.42 1494.71C2081.42 1500.5 2081.93 1505.71 2082.99 1510.45C2084 1515.14 2085.65 1519.15 2087.88 1522.44C2090.15 1525.72 2093.04 1528.22 2096.61 1529.94C2100.17 1531.66 2104.39 1532.55 2109.37 1532.55C2114.42 1532.55 2118.84 1532.08 2122.67 1531.09C2126.47 1530.1 2129.8 1529.05 2132.58 1527.86C2135.35 1526.66 2137.66 1525.62 2139.5 1524.63C2141.34 1523.63 2142.83 1523.17 2143.96 1523.17C2144.67 1523.17 2145.26 1523.32 2145.69 1523.69C2146.16 1524.05 2146.55 1524.68 2146.86 1525.62C2147.14 1526.5 2147.37 1527.8 2147.49 1529.47C2147.6 1531.14 2147.64 1533.28 2147.64 1535.78C2147.64 1538.02 2147.61 1539.95 2147.53 1541.51C2147.45 1543.07 2147.33 1544.43 2147.17 1545.52C2147.02 1546.67 2146.82 1547.61 2146.51 1548.34C2146.2 1549.12 2145.81 1549.85 2145.3 1550.58C2144.79 1551.26 2143.46 1552.25 2141.23 1553.5C2138.99 1554.75 2136.18 1555.95 2132.73 1557.15C2129.29 1558.34 2125.37 1559.39 2120.95 1560.27C2116.53 1561.16 2111.79 1561.63 2106.74 1561.63C2097.63 1561.63 2089.68 1560.12 2082.83 1557.04C2076.02 1554.02 2070.31 1549.38 2065.69 1543.18C2061.11 1536.98 2057.7 1529.11 2055.43 1519.67C2053.2 1510.19 2052.07 1499.09 2052.07 1486.37C2052.07 1474.28 2053.24 1463.39 2055.63 1453.64C2057.98 1443.95 2061.42 1435.71 2065.96 1428.94C2070.46 1422.16 2075.94 1417 2082.4 1413.46C2088.9 1409.86 2096.18 1408.09 2104.28 1408.09C2112.85 1408.09 2120.17 1409.76 2126.24 1413.15C2132.34 1416.48 2137.31 1421.17 2141.23 1427.11C2145.1 1433.06 2148 1440.14 2149.84 1448.27C2151.68 1456.4 2152.58 1465.26 2152.58 1474.85L2152.58 1480.95L2152.58 1480.95ZM2124.63 1470.01C2124.86 1459.22 2123.22 1450.72 2119.74 1444.57C2116.25 1438.37 2110.89 1435.3 2103.61 1435.3C2099.93 1435.3 2096.72 1436.23 2094.02 1438.06C2091.28 1439.88 2089.01 1442.33 2087.21 1445.46C2085.41 1448.59 2084.04 1452.23 2083.1 1456.46C2082.12 1460.73 2081.58 1465.21 2081.42 1470.01L2124.63 1470.01ZM2274.1 1553.03C2274.1 1554.02 2273.87 1554.9 2273.4 1555.69C2272.97 1556.47 2272.19 1557.09 2271.13 1557.61C2270.03 1558.08 2268.54 1558.5 2266.67 1558.76C2264.79 1559.02 2262.48 1559.13 2259.74 1559.13C2256.88 1559.13 2254.53 1559.02 2252.66 1558.76C2250.78 1558.5 2249.29 1558.08 2248.19 1557.61C2247.14 1557.09 2246.35 1556.47 2245.92 1555.69C2245.45 1554.9 2245.22 1554.02 2245.22 1553.03L2245.22 1475.32C2245.22 1468.7 2244.86 1463.49 2244.12 1459.74C2243.42 1455.93 2242.36 1452.7 2240.99 1450.05C2239.62 1447.34 2237.82 1445.25 2235.67 1443.74C2233.48 1442.28 2230.97 1441.55 2228.08 1441.55C2224.4 1441.55 2220.72 1443.32 2216.96 1446.92C2213.24 1450.46 2209.33 1455.67 2205.3 1462.45L2205.3 1553.03C2205.3 1554.02 2205.06 1554.9 2204.59 1555.69C2204.16 1556.47 2203.38 1557.09 2202.24 1557.61C2201.15 1558.08 2199.66 1558.5 2197.86 1558.76C2196.02 1559.02 2193.67 1559.13 2190.85 1559.13C2188.04 1559.13 2185.69 1559.02 2183.85 1558.76C2182.05 1558.5 2180.56 1558.08 2179.46 1557.61C2178.33 1557.09 2177.55 1556.47 2177.12 1555.69C2176.65 1554.9 2176.41 1554.02 2176.41 1553.03L2176.41 1416.69C2176.41 1415.7 2176.61 1414.81 2177 1414.03C2177.35 1413.25 2178.05 1412.63 2179.03 1412.1C2180.05 1411.63 2181.3 1411.22 2182.87 1410.96C2184.43 1410.7 2186.43 1410.59 2188.78 1410.59C2191.24 1410.59 2193.24 1410.7 2194.85 1410.96C2196.45 1411.22 2197.7 1411.63 2198.6 1412.1C2199.46 1412.63 2200.09 1413.25 2200.48 1414.03C2200.87 1414.81 2201.07 1415.7 2201.07 1416.69L2201.07 1432.43C2206.7 1424.3 2212.46 1418.25 2218.33 1414.19C2224.16 1410.12 2230.27 1408.09 2236.61 1408.09C2243.57 1408.09 2249.45 1409.6 2254.22 1412.68C2259 1415.7 2262.83 1419.87 2265.8 1425.13C2268.74 1430.34 2270.85 1436.49 2272.15 1443.53C2273.44 1450.57 2274.1 1459.01 2274.1 1468.86L2274.1 1553.03ZM2360.84 1539.63C2360.84 1544.12 2360.64 1547.56 2360.21 1549.95C2359.78 1552.35 2359.23 1554.02 2358.53 1554.96C2357.86 1555.95 2356.84 1556.83 2355.51 1557.56C2354.14 1558.34 2352.58 1559.02 2350.78 1559.54C2349.02 1560.12 2347.06 1560.53 2344.94 1560.85C2342.83 1561.16 2340.72 1561.31 2338.56 1561.31C2332.85 1561.31 2327.88 1560.32 2323.65 1558.4C2319.46 1556.47 2315.98 1553.5 2313.2 1549.48C2310.46 1545.47 2308.43 1540.42 2307.14 1534.27C2305.85 1528.17 2305.18 1520.92 2305.18 1512.59L2305.18 1442.8L2292.77 1442.8C2291.32 1442.8 2290.19 1441.6 2289.45 1439.2C2288.66 1436.81 2288.27 1432.8 2288.27 1427.17C2288.27 1424.2 2288.35 1421.69 2288.54 1419.66C2288.74 1417.63 2289.05 1416.01 2289.45 1414.81C2289.8 1413.67 2290.31 1412.83 2290.89 1412.31C2291.44 1411.79 2292.15 1411.53 2292.89 1411.53L2305.18 1411.53L2305.18 1381.04C2305.18 1380.05 2305.37 1379.11 2305.81 1378.28C2306.24 1377.5 2307.02 1376.82 2308.11 1376.25C2309.21 1375.67 2310.74 1375.26 2312.62 1375C2314.49 1374.74 2316.8 1374.63 2319.58 1374.63C2322.4 1374.63 2324.75 1374.74 2326.63 1375C2328.51 1375.26 2329.99 1375.67 2331.09 1376.25C2332.15 1376.82 2332.93 1377.5 2333.36 1378.28C2333.83 1379.11 2334.06 1380.05 2334.06 1381.04L2334.06 1411.53L2356.26 1411.53C2357.04 1411.53 2357.7 1411.79 2358.25 1412.31C2358.84 1412.83 2359.31 1413.67 2359.7 1414.81C2360.09 1416.01 2360.36 1417.63 2360.56 1419.66C2360.76 1421.69 2360.84 1424.2 2360.84 1427.17C2360.84 1432.8 2360.44 1436.81 2359.7 1439.2C2358.92 1441.6 2357.82 1442.8 2356.37 1442.8L2334.06 1442.8L2334.06 1506.8C2334.06 1514.25 2334.93 1519.83 2336.69 1523.53C2338.45 1527.23 2341.58 1529.11 2346.08 1529.11C2347.61 1529.11 2348.98 1528.95 2350.19 1528.59C2351.4 1528.22 2352.5 1527.8 2353.44 1527.33C2354.42 1526.92 2355.2 1526.5 2355.87 1526.14C2356.49 1525.77 2357.12 1525.62 2357.63 1525.62C2358.1 1525.62 2358.53 1525.77 2358.96 1526.14C2359.35 1526.5 2359.7 1527.18 2359.94 1528.27C2360.13 1529.32 2360.36 1530.77 2360.56 1532.6C2360.76 1534.47 2360.84 1536.77 2360.84 1539.63ZM2447.41 1429.41C2447.41 1433.06 2447.33 1436.08 2447.18 1438.42C2447.02 1440.77 2446.79 1442.59 2446.51 1443.9C2446.2 1445.2 2445.77 1446.14 2445.3 1446.66C2444.79 1447.18 2444.16 1447.39 2443.38 1447.39C2442.79 1447.39 2442.09 1447.23 2441.31 1446.87C2440.56 1446.5 2439.7 1446.14 2438.72 1445.72C2437.78 1445.3 2436.73 1444.94 2435.59 1444.57C2434.42 1444.21 2433.16 1444.05 2431.8 1444.05C2430.19 1444.05 2428.59 1444.47 2426.98 1445.35C2425.38 1446.24 2423.69 1447.54 2421.97 1449.42C2420.25 1451.24 2418.45 1453.69 2416.57 1456.72C2414.69 1459.79 2412.69 1463.54 2410.54 1468.03L2410.54 1553.03C2410.54 1554.02 2410.31 1554.9 2409.84 1555.69C2409.41 1556.47 2408.62 1557.09 2407.49 1557.61C2406.39 1558.08 2404.91 1558.5 2403.11 1558.76C2401.27 1559.02 2398.92 1559.13 2396.1 1559.13C2393.28 1559.13 2390.93 1559.02 2389.09 1558.76C2387.29 1558.5 2385.81 1558.08 2384.71 1557.61C2383.58 1557.09 2382.79 1556.47 2382.36 1555.69C2381.89 1554.9 2381.66 1554.02 2381.66 1553.03L2381.66 1416.69C2381.66 1415.7 2381.85 1414.81 2382.24 1414.03C2382.6 1413.25 2383.3 1412.63 2384.28 1412.1C2385.3 1411.63 2386.55 1411.22 2388.12 1410.96C2389.68 1410.7 2391.68 1410.59 2394.03 1410.59C2396.49 1410.59 2398.49 1410.7 2400.09 1410.96C2401.7 1411.22 2402.95 1411.63 2403.85 1412.1C2404.71 1412.63 2405.34 1413.25 2405.73 1414.03C2406.12 1414.81 2406.32 1415.7 2406.32 1416.69L2406.32 1433.68C2408.98 1428.57 2411.52 1424.4 2413.87 1421.12C2416.26 1417.84 2418.53 1415.18 2420.64 1413.25C2422.79 1411.32 2424.95 1409.97 2427.1 1409.24C2429.21 1408.46 2431.37 1408.09 2433.52 1408.09C2434.49 1408.09 2435.59 1408.14 2436.73 1408.3C2437.86 1408.46 2439.07 1408.72 2440.29 1409.08C2441.5 1409.45 2442.6 1409.86 2443.5 1410.28C2444.44 1410.75 2445.1 1411.22 2445.53 1411.74C2445.92 1412.26 2446.24 1412.83 2446.43 1413.41C2446.63 1414.03 2446.79 1414.87 2446.94 1415.96C2447.1 1417 2447.22 1418.62 2447.29 1420.76C2447.37 1422.89 2447.41 1425.76 2447.41 1429.41L2447.41 1429.41ZM2562.13 1553.03C2562.13 1554.02 2561.93 1554.9 2561.54 1555.69C2561.19 1556.47 2560.52 1557.09 2559.55 1557.61C2558.61 1558.08 2557.35 1558.5 2555.75 1558.76C2554.18 1559.02 2552.23 1559.13 2549.88 1559.13C2547.33 1559.13 2545.3 1559.02 2543.73 1558.76C2542.17 1558.5 2540.91 1558.08 2540.01 1557.61C2539.08 1557.09 2538.45 1556.47 2538.06 1555.69C2537.67 1554.9 2537.47 1554.02 2537.47 1553.03L2537.47 1537.29C2531.83 1545.37 2526.08 1551.46 2520.21 1555.53C2514.34 1559.59 2508.27 1561.63 2502.01 1561.63C2494.97 1561.63 2489.02 1560.12 2484.24 1557.04C2479.47 1554.02 2475.59 1549.8 2472.66 1544.53C2469.72 1539.22 2467.61 1533.12 2466.32 1526.14C2465.06 1519.15 2464.44 1510.45 2464.44 1500.08L2464.44 1416.69C2464.44 1415.7 2464.63 1414.81 2465.06 1414.03C2465.49 1413.25 2466.28 1412.63 2467.37 1412.1C2468.47 1411.63 2469.99 1411.22 2471.87 1410.96C2473.75 1410.7 2476.06 1410.59 2478.84 1410.59C2481.66 1410.59 2484.01 1410.7 2485.85 1410.96C2487.69 1411.22 2489.17 1411.63 2490.27 1412.1C2491.4 1412.63 2492.19 1413.25 2492.62 1414.03C2493.09 1414.81 2493.32 1415.7 2493.32 1416.69L2493.32 1493.67C2493.32 1500.81 2493.67 1506.23 2494.34 1509.98C2495.04 1513.78 2496.1 1517.01 2497.51 1519.67C2498.92 1522.38 2500.72 1524.47 2502.91 1525.98C2505.06 1527.44 2507.61 1528.17 2510.54 1528.17C2514.22 1528.17 2517.9 1526.4 2521.62 1522.85C2525.3 1519.31 2529.29 1514.1 2533.48 1507.32L2533.48 1416.69C2533.48 1415.7 2533.67 1414.81 2534.11 1414.03C2534.54 1413.25 2535.28 1412.63 2536.41 1412.1C2537.51 1411.63 2539 1411.22 2540.8 1410.96C2542.64 1410.7 2544.99 1410.59 2547.8 1410.59C2550.62 1410.59 2552.97 1410.7 2554.81 1410.96C2556.61 1411.22 2558.1 1411.63 2559.15 1412.1C2560.21 1412.63 2560.99 1413.25 2561.42 1414.03C2561.89 1414.81 2562.13 1415.7 2562.13 1416.69L2562.13 1553.03ZM2753.91 1553.03C2753.91 1554.02 2753.68 1554.9 2753.21 1555.69C2752.78 1556.47 2751.99 1557.09 2750.94 1557.61C2749.84 1558.08 2748.39 1558.5 2746.55 1558.76C2744.71 1559.02 2742.36 1559.13 2739.55 1559.13C2736.61 1559.13 2734.22 1559.02 2732.38 1558.76C2730.55 1558.5 2729.06 1558.08 2727.96 1557.61C2726.87 1557.09 2726.08 1556.47 2725.65 1555.69C2725.22 1554.9 2725.03 1554.02 2725.03 1553.03L2725.03 1472.25C2725.03 1467.66 2724.71 1463.49 2724.05 1459.74C2723.42 1455.93 2722.4 1452.7 2721.07 1450.05C2719.74 1447.34 2718.06 1445.25 2716.06 1443.74C2714.03 1442.28 2711.64 1441.55 2708.82 1441.55C2705.38 1441.55 2701.89 1443.32 2698.41 1446.92C2694.89 1450.46 2691.09 1455.67 2686.98 1462.45L2686.98 1553.03C2686.98 1554.02 2686.75 1554.9 2686.28 1555.69C2685.85 1556.47 2685.06 1557.09 2683.93 1557.61C2682.83 1558.08 2681.35 1558.5 2679.51 1558.76C2677.67 1559.02 2675.36 1559.13 2672.62 1559.13C2669.76 1559.13 2667.41 1559.02 2665.57 1558.76C2663.73 1558.5 2662.25 1558.08 2661.15 1557.61C2660.02 1557.09 2659.23 1556.47 2658.8 1555.69C2658.33 1554.9 2658.1 1554.02 2658.1 1553.03L2658.1 1472.25C2658.1 1467.66 2657.79 1463.49 2657.12 1459.74C2656.49 1455.93 2655.51 1452.7 2654.18 1450.05C2652.89 1447.34 2651.21 1445.25 2649.17 1443.74C2647.1 1442.28 2644.67 1441.55 2641.93 1441.55C2638.41 1441.55 2634.93 1443.32 2631.4 1446.92C2627.88 1450.46 2624.09 1455.67 2620.05 1462.45L2620.05 1553.03C2620.05 1554.02 2619.82 1554.9 2619.35 1555.69C2618.92 1556.47 2618.14 1557.09 2617 1557.61C2615.91 1558.08 2614.42 1558.5 2612.62 1558.76C2610.78 1559.02 2608.43 1559.13 2605.61 1559.13C2602.79 1559.13 2600.45 1559.02 2598.61 1558.76C2596.81 1558.5 2595.32 1558.08 2594.22 1557.61C2593.09 1557.09 2592.31 1556.47 2591.88 1555.69C2591.4 1554.9 2591.17 1554.02 2591.17 1553.03L2591.17 1416.69C2591.17 1415.7 2591.37 1414.81 2591.76 1414.03C2592.11 1413.25 2592.81 1412.63 2593.79 1412.1C2594.81 1411.63 2596.06 1411.22 2597.63 1410.96C2599.19 1410.7 2601.19 1410.59 2603.54 1410.59C2606 1410.59 2608 1410.7 2609.6 1410.96C2611.21 1411.22 2612.46 1411.63 2613.36 1412.1C2614.22 1412.63 2614.85 1413.25 2615.24 1414.03C2615.63 1414.81 2615.83 1415.7 2615.83 1416.69L2615.83 1432.43C2621.46 1424.3 2627.1 1418.25 2632.74 1414.19C2638.37 1410.12 2644.24 1408.09 2650.35 1408.09C2654.58 1408.09 2658.37 1408.66 2661.74 1409.86C2665.1 1411.01 2668.08 1412.68 2670.74 1414.87C2673.36 1417.06 2675.63 1419.66 2677.55 1422.68C2679.47 1425.76 2681.07 1429.15 2682.36 1432.9C2685.42 1428.52 2688.43 1424.77 2691.37 1421.64C2694.3 1418.52 2697.24 1415.91 2700.09 1413.93C2702.95 1411.95 2705.81 1410.49 2708.71 1409.55C2711.56 1408.56 2714.46 1408.09 2717.47 1408.09C2724.24 1408.09 2730 1409.6 2734.65 1412.68C2739.31 1415.7 2743.07 1419.87 2745.93 1425.13C2748.82 1430.34 2750.86 1436.49 2752.07 1443.53C2753.28 1450.57 2753.91 1457.97 2753.91 1465.84L2753.91 1553.03ZM2947.06 1553.03C2947.06 1554.12 2946.91 1555.06 2946.59 1555.84C2946.28 1556.62 2945.58 1557.25 2944.44 1557.77C2943.27 1558.24 2941.62 1558.6 2939.39 1558.81C2937.16 1559.02 2934.15 1559.13 2930.35 1559.13C2927.14 1559.13 2924.6 1559.02 2922.68 1558.81C2920.76 1558.6 2919.23 1558.24 2918.14 1557.67C2917.04 1557.09 2916.26 1556.42 2915.79 1555.53C2915.36 1554.64 2914.97 1553.6 2914.66 1552.4L2901.27 1508.16C2899.67 1503.15 2898.1 1498.67 2896.57 1494.81C2895.05 1490.91 2893.33 1487.67 2891.45 1485.07C2889.57 1482.46 2887.38 1480.53 2884.91 1479.18C2882.48 1477.88 2879.63 1477.2 2876.42 1477.2L2866.98 1477.2L2866.98 1552.72C2866.98 1553.71 2866.75 1554.64 2866.24 1555.43C2865.73 1556.26 2864.91 1556.94 2863.77 1557.46C2862.64 1557.93 2861.11 1558.34 2859.2 1558.66C2857.32 1558.97 2854.85 1559.13 2851.92 1559.13C2849.02 1559.13 2846.59 1558.97 2844.64 1558.66C2842.68 1558.34 2841.15 1557.93 2840.02 1557.46C2838.88 1556.94 2838.06 1556.26 2837.63 1555.48C2837.16 1554.64 2836.93 1553.71 2836.93 1552.72L2836.93 1373.22C2836.93 1368.74 2837.79 1365.51 2839.51 1363.53C2841.23 1361.55 2843.35 1360.56 2845.85 1360.56L2884.28 1360.56C2888.16 1360.56 2891.41 1360.67 2893.91 1360.87C2896.42 1361.08 2898.73 1361.34 2900.8 1361.6C2906.75 1362.75 2912.11 1364.68 2916.89 1367.44C2921.66 1370.15 2925.73 1373.75 2929.06 1378.18C2932.39 1382.61 2934.93 1387.82 2936.69 1393.86C2938.45 1399.91 2939.31 1406.84 2939.31 1414.71C2939.31 1421.28 2938.69 1427.32 2937.44 1432.74C2936.14 1438.21 2934.3 1443.06 2931.84 1447.34C2929.41 1451.61 2926.4 1455.31 2922.8 1458.44C2919.2 1461.62 2915.09 1464.12 2910.51 1466.1C2912.74 1467.5 2914.81 1469.22 2916.77 1471.26C2918.73 1473.29 2920.57 1475.79 2922.29 1478.71C2924.01 1481.63 2925.65 1484.91 2927.18 1488.66C2928.71 1492.36 2930.19 1496.59 2931.64 1501.28L2944.21 1540.31C2945.34 1544.17 2946.12 1546.98 2946.48 1548.81C2946.87 1550.58 2947.06 1551.99 2947.06 1553.03ZM2908.08 1418.83C2908.08 1412.31 2906.98 1406.79 2904.75 1402.36C2902.52 1397.88 2898.88 1394.7 2893.83 1392.87C2892.31 1392.35 2890.59 1391.99 2888.63 1391.67C2886.67 1391.36 2883.97 1391.21 2880.53 1391.21L2866.98 1391.21L2866.98 1447.18L2882.37 1447.18C2886.67 1447.18 2890.39 1446.5 2893.6 1445.09C2896.85 1443.74 2899.51 1441.81 2901.66 1439.31C2903.81 1436.86 2905.42 1433.84 2906.48 1430.4C2907.53 1426.96 2908.08 1423.1 2908.08 1418.83ZM3058.45 1480.95C3058.45 1485.64 3057.67 1489.08 3056.11 1491.32C3054.54 1493.56 3052.39 1494.71 3049.61 1494.71L2987.3 1494.71C2987.3 1500.5 2987.81 1505.71 2988.86 1510.45C2989.88 1515.14 2991.53 1519.15 2993.76 1522.44C2996.03 1525.72 2998.92 1528.22 3002.48 1529.94C3006.05 1531.66 3010.27 1532.55 3015.24 1532.55C3020.29 1532.55 3024.72 1532.08 3028.55 1531.09C3032.35 1530.1 3035.67 1529.05 3038.45 1527.86C3041.23 1526.66 3043.54 1525.62 3045.38 1524.63C3047.22 1523.63 3048.71 1523.17 3049.84 1523.17C3050.55 1523.17 3051.13 1523.32 3051.56 1523.69C3052.03 1524.05 3052.43 1524.68 3052.74 1525.62C3053.01 1526.5 3053.25 1527.8 3053.37 1529.47C3053.48 1531.14 3053.52 1533.28 3053.52 1535.78C3053.52 1538.02 3053.48 1539.95 3053.41 1541.51C3053.33 1543.07 3053.21 1544.43 3053.05 1545.52C3052.9 1546.67 3052.7 1547.61 3052.39 1548.34C3052.07 1549.12 3051.68 1549.85 3051.17 1550.58C3050.67 1551.26 3049.33 1552.25 3047.1 1553.5C3044.87 1554.75 3042.05 1555.95 3038.61 1557.15C3035.17 1558.34 3031.25 1559.39 3026.83 1560.27C3022.41 1561.16 3017.67 1561.63 3012.62 1561.63C3003.5 1561.63 2995.56 1560.12 2988.71 1557.04C2981.9 1554.02 2976.18 1549.38 2971.56 1543.18C2966.99 1536.98 2963.58 1529.11 2961.31 1519.67C2959.08 1510.19 2957.94 1499.09 2957.94 1486.37C2957.94 1474.28 2959.12 1463.39 2961.51 1453.64C2963.85 1443.95 2967.3 1435.71 2971.84 1428.94C2976.34 1422.16 2981.82 1417 2988.28 1413.46C2994.77 1409.86 3002.05 1408.09 3010.16 1408.09C3018.73 1408.09 3026.05 1409.76 3032.11 1413.15C3038.22 1416.48 3043.19 1421.17 3047.1 1427.11C3050.98 1433.06 3053.88 1440.14 3055.71 1448.27C3057.55 1456.4 3058.45 1465.26 3058.45 1474.85L3058.45 1480.95L3058.45 1480.95ZM3030.51 1470.01C3030.74 1459.22 3029.1 1450.72 3025.62 1444.57C3022.13 1438.37 3016.77 1435.3 3009.49 1435.3C3005.81 1435.3 3002.6 1436.23 2999.9 1438.06C2997.16 1439.88 2994.89 1442.33 2993.09 1445.46C2991.29 1448.59 2989.92 1452.23 2988.98 1456.46C2988 1460.73 2987.46 1465.21 2987.3 1470.01L3030.51 1470.01ZM3179.98 1553.03C3179.98 1554.02 3179.75 1554.9 3179.28 1555.69C3178.85 1556.47 3178.06 1557.09 3177.01 1557.61C3175.91 1558.08 3174.42 1558.5 3172.54 1558.76C3170.67 1559.02 3168.36 1559.13 3165.62 1559.13C3162.76 1559.13 3160.41 1559.02 3158.53 1558.76C3156.65 1558.5 3155.17 1558.08 3154.07 1557.61C3153.01 1557.09 3152.23 1556.47 3151.8 1555.69C3151.33 1554.9 3151.1 1554.02 3151.1 1553.03L3151.1 1475.32C3151.1 1468.7 3150.74 1463.49 3150 1459.74C3149.3 1455.93 3148.24 1452.7 3146.87 1450.05C3145.5 1447.34 3143.7 1445.25 3141.55 1443.74C3139.35 1442.28 3136.85 1441.55 3133.95 1441.55C3130.27 1441.55 3126.6 1443.32 3122.84 1446.92C3119.12 1450.46 3115.2 1455.67 3111.17 1462.45L3111.17 1553.03C3111.17 1554.02 3110.94 1554.9 3110.47 1555.69C3110.04 1556.47 3109.26 1557.09 3108.12 1557.61C3107.03 1558.08 3105.54 1558.5 3103.74 1558.76C3101.9 1559.02 3099.55 1559.13 3096.73 1559.13C3093.91 1559.13 3091.57 1559.02 3089.73 1558.76C3087.93 1558.5 3086.44 1558.08 3085.34 1557.61C3084.21 1557.09 3083.42 1556.47 3082.99 1555.69C3082.52 1554.9 3082.29 1554.02 3082.29 1553.03L3082.29 1352.12C3082.29 1351.08 3082.52 1350.19 3082.99 1349.36C3083.42 1348.57 3084.21 1347.84 3085.34 1347.32C3086.44 1346.75 3087.93 1346.33 3089.73 1346.02C3091.57 1345.71 3093.91 1345.55 3096.73 1345.55C3099.55 1345.55 3101.9 1345.71 3103.74 1346.02C3105.54 1346.33 3107.03 1346.75 3108.12 1347.32C3109.26 1347.84 3110.04 1348.57 3110.47 1349.36C3110.94 1350.19 3111.17 1351.13 3111.17 1352.12L3111.17 1427.48C3116.15 1420.96 3121.19 1416.12 3126.36 1412.89C3131.53 1409.71 3136.89 1408.09 3142.49 1408.09C3149.45 1408.09 3155.32 1409.6 3160.1 1412.68C3164.87 1415.7 3168.71 1419.92 3171.68 1425.19C3174.62 1430.5 3176.73 1436.65 3178.02 1443.74C3179.32 1450.83 3179.98 1459.43 3179.98 1469.48L3179.98 1553.03ZM3295.44 1553.5C3295.44 1554.9 3295.05 1556 3294.31 1556.83C3293.52 1557.67 3292.31 1558.24 3290.67 1558.6C3289.02 1558.97 3286.6 1559.13 3283.35 1559.13C3279.9 1559.13 3277.4 1558.97 3275.83 1558.6C3274.27 1558.24 3273.13 1557.67 3272.51 1556.83C3271.84 1556 3271.53 1554.9 3271.53 1553.5L3271.53 1542.66C3267.3 1548.65 3262.52 1553.29 3257.12 1556.62C3251.76 1559.96 3245.77 1561.63 3239.2 1561.63C3233.8 1561.63 3228.79 1560.69 3224.25 1558.81C3219.71 1556.94 3215.79 1554.12 3212.47 1550.42C3209.14 1546.67 3206.56 1542.08 3204.72 1536.61C3202.88 1531.09 3201.98 1524.68 3201.98 1517.38C3201.98 1509.41 3203.15 1502.53 3205.46 1496.69C3207.81 1490.8 3211.29 1486.01 3215.91 1482.15C3220.53 1478.34 3226.24 1475.53 3233.13 1473.71C3239.98 1471.88 3247.97 1470.94 3257.05 1470.94L3267.03 1470.94L3267.03 1462.71C3267.03 1458.44 3266.71 1454.68 3266.05 1451.45C3265.42 1448.27 3264.33 1445.56 3262.84 1443.43C3261.35 1441.29 3259.39 1439.73 3256.89 1438.68C3254.42 1437.69 3251.33 1437.17 3247.69 1437.17C3242.88 1437.17 3238.57 1437.9 3234.81 1439.31C3231.02 1440.72 3227.69 1442.33 3224.8 1444.05C3221.9 1445.77 3219.47 1447.39 3217.52 1448.79C3215.56 1450.2 3213.99 1450.93 3212.78 1450.93C3211.92 1450.93 3211.17 1450.57 3210.55 1449.89C3209.88 1449.16 3209.33 1448.12 3208.94 1446.81C3208.51 1445.51 3208.2 1443.84 3207.96 1441.92C3207.73 1439.99 3207.61 1437.85 3207.61 1435.56C3207.61 1432.38 3207.81 1429.88 3208.2 1428.05C3208.55 1426.23 3209.3 1424.61 3210.35 1423.1C3211.45 1421.64 3213.29 1420.03 3215.99 1418.25C3218.65 1416.48 3221.78 1414.81 3225.38 1413.3C3228.98 1411.74 3232.9 1410.49 3237.12 1409.55C3241.39 1408.56 3245.77 1408.09 3250.27 1408.09C3258.3 1408.09 3265.15 1409.13 3270.86 1411.22C3276.54 1413.3 3281.23 1416.53 3284.87 1420.86C3288.55 1425.19 3291.25 1430.76 3292.94 1437.59C3294.62 1444.36 3295.44 1452.49 3295.44 1461.82L3295.44 1553.5ZM3267.03 1495.02L3256.03 1495.02C3251.37 1495.02 3247.42 1495.49 3244.13 1496.38C3240.84 1497.32 3238.18 1498.67 3236.11 1500.55C3234.03 1502.37 3232.55 1504.56 3231.6 1507.17C3230.63 1509.77 3230.16 1512.74 3230.16 1516.08C3230.16 1521.81 3231.53 1526.29 3234.23 1529.52C3236.93 1532.81 3240.68 1534.42 3245.5 1534.42C3249.53 1534.42 3253.25 1533.07 3256.65 1530.31C3260.06 1527.54 3263.5 1523.53 3267.03 1518.21L3267.03 1495.02Z" fill="#224a84" fill-rule="nonzero" opacity="1" stroke="none" vectornator:layerName="path"/>
<path d="M3427.11 1483.03C3427.11 1495.13 3426.13 1506.02 3424.13 1515.71C3422.14 1525.35 3419.28 1533.59 3415.56 1540.42C3411.8 1547.24 3407.18 1552.45 3401.74 1556.16C3396.27 1559.8 3390.08 1561.63 3383.15 1561.63C3379.71 1561.63 3376.5 1561.21 3373.52 1560.32C3370.55 1559.49 3367.69 1558.08 3364.99 1556.16C3362.25 1554.18 3359.59 1551.78 3356.97 1548.81C3354.35 1545.84 3351.65 1542.29 3348.91 1538.12L3348.91 1552.98C3348.91 1554.12 3348.67 1555.06 3348.28 1555.84C3347.85 1556.57 3347.14 1557.25 3346.21 1557.77C3345.23 1558.24 3343.97 1558.6 3342.37 1558.81C3340.76 1559.02 3338.81 1559.13 3336.5 1559.13C3334.15 1559.13 3332.19 1559.02 3330.63 1558.81C3329.02 1558.6 3327.77 1558.24 3326.83 1557.77C3325.85 1557.25 3325.19 1556.62 3324.84 1555.84C3324.44 1555.06 3324.25 1554.12 3324.25 1553.03L3324.25 1352.12C3324.25 1351.08 3324.48 1350.19 3324.95 1349.36C3325.38 1348.57 3326.17 1347.84 3327.3 1347.32C3328.4 1346.75 3329.88 1346.33 3331.68 1346.02C3333.53 1345.71 3335.87 1345.55 3338.69 1345.55C3341.51 1345.55 3343.86 1345.71 3345.7 1346.02C3347.5 1346.33 3348.98 1346.75 3350.08 1347.32C3351.21 1347.84 3352 1348.57 3352.43 1349.36C3352.9 1350.19 3353.13 1351.13 3353.13 1352.12L3353.13 1427.48C3355.72 1424.04 3358.34 1421.07 3360.92 1418.62C3363.5 1416.17 3366.13 1414.19 3368.71 1412.57C3371.29 1411.01 3373.96 1409.86 3376.73 1409.13C3379.47 1408.46 3382.37 1408.09 3385.42 1408.09C3392.98 1408.09 3399.4 1410.12 3404.68 1414.14C3409.92 1418.15 3414.23 1423.57 3417.56 1430.4C3420.88 1437.17 3423.31 1445.15 3424.84 1454.27C3426.36 1463.39 3427.11 1472.98 3427.11 1483.03ZM3397.28 1485.69C3397.28 1479.91 3396.97 1474.33 3396.3 1468.96C3395.68 1463.54 3394.54 1458.8 3392.94 1454.63C3391.33 1450.46 3389.22 1447.13 3386.67 1444.68C3384.13 1442.18 3380.88 1440.93 3376.97 1440.93C3375.09 1440.93 3373.21 1441.29 3371.37 1441.97C3369.53 1442.7 3367.65 1443.95 3365.7 1445.67C3363.74 1447.39 3361.74 1449.63 3359.67 1452.34C3357.59 1455.1 3355.44 1458.49 3353.13 1462.55L3353.13 1507.74C3357.2 1514.62 3361.08 1519.83 3364.76 1523.43C3368.48 1527.02 3372.35 1528.79 3376.42 1528.79C3380.14 1528.79 3383.35 1527.54 3385.93 1524.99C3388.51 1522.44 3390.71 1519.15 3392.43 1515.09C3394.11 1511.02 3395.36 1506.38 3396.15 1501.22C3396.89 1496.06 3397.28 1490.85 3397.28 1485.69ZM3479.16 1553.03C3479.16 1554.02 3478.93 1554.9 3478.46 1555.69C3478.03 1556.47 3477.24 1557.09 3476.11 1557.61C3475.01 1558.08 3473.52 1558.5 3471.72 1558.76C3469.88 1559.02 3467.54 1559.13 3464.72 1559.13C3461.9 1559.13 3459.55 1559.02 3457.71 1558.76C3455.91 1558.5 3454.42 1558.08 3453.33 1557.61C3452.19 1557.09 3451.41 1556.47 3450.98 1555.69C3450.51 1554.9 3450.28 1554.02 3450.28 1553.03L3450.28 1417C3450.28 1416.01 3450.51 1415.13 3450.98 1414.35C3451.41 1413.56 3452.19 1412.89 3453.33 1412.36C3454.42 1411.79 3455.91 1411.38 3457.71 1411.06C3459.55 1410.75 3461.9 1410.59 3464.72 1410.59C3467.54 1410.59 3469.88 1410.75 3471.72 1411.06C3473.52 1411.38 3475.01 1411.79 3476.11 1412.36C3477.24 1412.89 3478.03 1413.56 3478.46 1414.35C3478.93 1415.13 3479.16 1416.01 3479.16 1417L3479.16 1553.03ZM3481.51 1370.41C3481.51 1378.18 3480.33 1383.49 3477.95 1386.46C3475.56 1389.43 3471.18 1390.89 3464.72 1390.89C3458.22 1390.89 3453.8 1389.49 3451.57 1386.62C3449.3 1383.75 3448.16 1378.59 3448.16 1371.19C3448.16 1363.43 3449.34 1358.06 3451.69 1355.04C3453.99 1352.07 3458.42 1350.55 3464.95 1350.55C3471.37 1350.55 3475.76 1352.01 3478.07 1354.93C3480.37 1357.8 3481.51 1362.96 3481.51 1370.41ZM3536.85 1553.03C3536.85 1554.02 3536.62 1554.9 3536.15 1555.69C3535.72 1556.47 3534.93 1557.09 3533.8 1557.61C3532.7 1558.08 3531.22 1558.5 3529.42 1558.76C3527.57 1559.02 3525.23 1559.13 3522.41 1559.13C3519.59 1559.13 3517.24 1559.02 3515.4 1558.76C3513.6 1558.5 3512.12 1558.08 3511.02 1557.61C3509.89 1557.09 3509.1 1556.47 3508.67 1555.69C3508.2 1554.9 3507.97 1554.02 3507.97 1553.03L3507.97 1352.12C3507.97 1351.08 3508.2 1350.19 3508.67 1349.36C3509.1 1348.57 3509.89 1347.84 3511.02 1347.32C3512.12 1346.75 3513.6 1346.33 3515.4 1346.02C3517.24 1345.71 3519.59 1345.55 3522.41 1345.55C3525.23 1345.55 3527.57 1345.71 3529.42 1346.02C3531.22 1346.33 3532.7 1346.75 3533.8 1347.32C3534.93 1347.84 3535.72 1348.57 3536.15 1349.36C3536.62 1350.19 3536.85 1351.08 3536.85 1352.12L3536.85 1553.03ZM3594.54 1553.03C3594.54 1554.02 3594.31 1554.9 3593.84 1555.69C3593.41 1556.47 3592.62 1557.09 3591.49 1557.61C3590.39 1558.08 3588.91 1558.5 3587.11 1558.76C3585.27 1559.02 3582.92 1559.13 3580.1 1559.13C3577.28 1559.13 3574.93 1559.02 3573.09 1558.76C3571.29 1558.5 3569.81 1558.08 3568.71 1557.61C3567.58 1557.09 3566.79 1556.47 3566.36 1555.69C3565.89 1554.9 3565.66 1554.02 3565.66 1553.03L3565.66 1417C3565.66 1416.01 3565.89 1415.13 3566.36 1414.35C3566.79 1413.56 3567.58 1412.89 3568.71 1412.36C3569.81 1411.79 3571.29 1411.38 3573.09 1411.06C3574.93 1410.75 3577.28 1410.59 3580.1 1410.59C3582.92 1410.59 3585.27 1410.75 3587.11 1411.06C3588.91 1411.38 3590.39 1411.79 3591.49 1412.36C3592.62 1412.89 3593.41 1413.56 3593.84 1414.35C3594.31 1415.13 3594.54 1416.01 3594.54 1417L3594.54 1553.03ZM3596.89 1370.41C3596.89 1378.18 3595.72 1383.49 3593.33 1386.46C3590.94 1389.43 3586.56 1390.89 3580.1 1390.89C3573.6 1390.89 3569.18 1389.49 3566.95 1386.62C3564.68 1383.75 3563.54 1378.59 3563.54 1371.19C3563.54 1363.43 3564.72 1358.06 3567.07 1355.04C3569.38 1352.07 3573.8 1350.55 3580.33 1350.55C3586.75 1350.55 3591.14 1352.01 3593.45 1354.93C3595.76 1357.8 3596.89 1362.96 3596.89 1370.41ZM3683.94 1539.63C3683.94 1544.12 3683.74 1547.56 3683.31 1549.95C3682.88 1552.35 3682.33 1554.02 3681.63 1554.96C3680.96 1555.95 3679.94 1556.83 3678.61 1557.56C3677.24 1558.34 3675.68 1559.02 3673.88 1559.54C3672.12 1560.12 3670.16 1560.53 3668.05 1560.85C3665.93 1561.16 3663.82 1561.31 3661.67 1561.31C3655.95 1561.31 3650.98 1560.32 3646.75 1558.4C3642.57 1556.47 3639.08 1553.5 3636.3 1549.48C3633.56 1545.47 3631.53 1540.42 3630.24 1534.27C3628.95 1528.17 3628.28 1520.92 3628.28 1512.59L3628.28 1442.8L3615.87 1442.8C3614.43 1442.8 3613.29 1441.6 3612.55 1439.2C3611.76 1436.81 3611.37 1432.8 3611.37 1427.17C3611.37 1424.2 3611.45 1421.69 3611.65 1419.66C3611.84 1417.63 3612.15 1416.01 3612.55 1414.81C3612.9 1413.67 3613.41 1412.83 3613.99 1412.31C3614.54 1411.79 3615.25 1411.53 3615.99 1411.53L3628.28 1411.53L3628.28 1381.04C3628.28 1380.05 3628.48 1379.11 3628.91 1378.28C3629.34 1377.5 3630.12 1376.82 3631.22 1376.25C3632.31 1375.67 3633.84 1375.26 3635.72 1375C3637.6 1374.74 3639.9 1374.63 3642.68 1374.63C3645.5 1374.63 3647.85 1374.74 3649.73 1375C3651.61 1375.26 3653.09 1375.67 3654.19 1376.25C3655.25 1376.82 3656.03 1377.5 3656.46 1378.28C3656.93 1379.11 3657.16 1380.05 3657.16 1381.04L3657.16 1411.53L3679.36 1411.53C3680.14 1411.53 3680.81 1411.79 3681.35 1412.31C3681.94 1412.83 3682.41 1413.67 3682.8 1414.81C3683.19 1416.01 3683.47 1417.63 3683.66 1419.66C3683.86 1421.69 3683.94 1424.2 3683.94 1427.17C3683.94 1432.8 3683.54 1436.81 3682.8 1439.2C3682.02 1441.6 3680.92 1442.8 3679.47 1442.8L3657.16 1442.8L3657.16 1506.8C3657.16 1514.25 3658.03 1519.83 3659.79 1523.53C3661.55 1527.23 3664.68 1529.11 3669.18 1529.11C3670.71 1529.11 3672.08 1528.95 3673.29 1528.59C3674.5 1528.22 3675.6 1527.8 3676.54 1527.33C3677.52 1526.92 3678.3 1526.5 3678.97 1526.14C3679.59 1525.77 3680.22 1525.62 3680.73 1525.62C3681.2 1525.62 3681.63 1525.77 3682.06 1526.14C3682.45 1526.5 3682.8 1527.18 3683.04 1528.27C3683.23 1529.32 3683.47 1530.77 3683.66 1532.6C3683.86 1534.47 3683.94 1536.77 3683.94 1539.63ZM3789.57 1553.5C3789.57 1554.9 3789.18 1556 3788.44 1556.83C3787.66 1557.67 3786.44 1558.24 3784.8 1558.6C3783.15 1558.97 3780.73 1559.13 3777.48 1559.13C3774.03 1559.13 3771.53 1558.97 3769.96 1558.6C3768.4 1558.24 3767.26 1557.67 3766.64 1556.83C3765.97 1556 3765.66 1554.9 3765.66 1553.5L3765.66 1542.66C3761.43 1548.65 3756.66 1553.29 3751.26 1556.62C3745.89 1559.96 3739.91 1561.63 3733.33 1561.63C3727.93 1561.63 3722.92 1560.69 3718.38 1558.81C3713.84 1556.94 3709.92 1554.12 3706.6 1550.42C3703.27 1546.67 3700.69 1542.08 3698.85 1536.61C3697.01 1531.09 3696.11 1524.68 3696.11 1517.38C3696.11 1509.41 3697.28 1502.53 3699.59 1496.69C3701.94 1490.8 3705.42 1486.01 3710.04 1482.15C3714.66 1478.34 3720.37 1475.53 3727.26 1473.71C3734.11 1471.88 3742.1 1470.94 3751.18 1470.94L3761.16 1470.94L3761.16 1462.71C3761.16 1458.44 3760.84 1454.68 3760.18 1451.45C3759.55 1448.27 3758.46 1445.56 3756.97 1443.43C3755.48 1441.29 3753.53 1439.73 3751.02 1438.68C3748.56 1437.69 3745.46 1437.17 3741.82 1437.17C3737.01 1437.17 3732.7 1437.9 3728.95 1439.31C3725.15 1440.72 3721.82 1442.33 3718.93 1444.05C3716.03 1445.77 3713.6 1447.39 3711.65 1448.79C3709.69 1450.2 3708.12 1450.93 3706.91 1450.93C3706.05 1450.93 3705.31 1450.57 3704.68 1449.89C3704.01 1449.16 3703.47 1448.12 3703.08 1446.81C3702.65 1445.51 3702.33 1443.84 3702.1 1441.92C3701.86 1439.99 3701.74 1437.85 3701.74 1435.56C3701.74 1432.38 3701.94 1429.88 3702.33 1428.05C3702.68 1426.23 3703.43 1424.61 3704.48 1423.1C3705.58 1421.64 3707.42 1420.03 3710.12 1418.25C3712.78 1416.48 3715.91 1414.81 3719.51 1413.3C3723.11 1411.74 3727.03 1410.49 3731.26 1409.55C3735.52 1408.56 3739.91 1408.09 3744.41 1408.09C3752.43 1408.09 3759.28 1409.13 3764.99 1411.22C3770.67 1413.3 3775.37 1416.53 3779.01 1420.86C3782.68 1425.19 3785.39 1430.76 3787.07 1437.59C3788.75 1444.36 3789.57 1452.49 3789.57 1461.82L3789.57 1553.5ZM3761.16 1495.02L3750.16 1495.02C3745.5 1495.02 3741.55 1495.49 3738.26 1496.38C3734.97 1497.32 3732.31 1498.67 3730.24 1500.55C3728.16 1502.37 3726.68 1504.56 3725.74 1507.17C3724.76 1509.77 3724.29 1512.74 3724.29 1516.08C3724.29 1521.81 3725.66 1526.29 3728.36 1529.52C3731.06 1532.81 3734.82 1534.42 3739.63 1534.42C3743.66 1534.42 3747.38 1533.07 3750.79 1530.31C3754.19 1527.54 3757.63 1523.53 3761.16 1518.21L3761.16 1495.02ZM3895.64 1531.29C3895.64 1533.95 3895.6 1536.14 3895.48 1537.97C3895.37 1539.74 3895.21 1541.25 3895.01 1542.5C3894.82 1543.7 3894.58 1544.69 3894.31 1545.47C3894.04 1546.25 3893.45 1547.19 3892.55 1548.39C3891.61 1549.54 3890.04 1551 3887.85 1552.66C3885.62 1554.33 3883.12 1555.84 3880.26 1557.2C3877.44 1558.5 3874.39 1559.59 3871.06 1560.38C3867.73 1561.21 3864.29 1561.63 3860.77 1561.63C3852.9 1561.63 3845.93 1560.01 3839.87 1556.73C3833.76 1553.5 3828.67 1548.65 3824.52 1542.29C3820.41 1535.93 3817.28 1528.12 3815.21 1518.94C3813.1 1509.77 3812.04 1499.3 3812.04 1487.47C3812.04 1473.81 3813.33 1461.98 3815.87 1452.08C3818.46 1442.12 3822.02 1433.89 3826.6 1427.37C3831.18 1420.86 3836.62 1416.01 3842.88 1412.83C3849.14 1409.66 3856.03 1408.09 3863.55 1408.09C3866.6 1408.09 3869.57 1408.46 3872.55 1409.19C3875.48 1409.86 3878.22 1410.85 3880.81 1412.05C3883.35 1413.3 3885.66 1414.66 3887.66 1416.17C3889.69 1417.73 3891.14 1419.04 3891.96 1420.18C3892.82 1421.28 3893.41 1422.21 3893.76 1423C3894.07 1423.78 3894.35 1424.77 3894.55 1425.97C3894.74 1427.22 3894.9 1428.73 3895.01 1430.5C3895.13 1432.33 3895.17 1434.46 3895.17 1437.02C3895.17 1442.96 3894.82 1447.13 3894.04 1449.52C3893.25 1451.92 3892.27 1453.12 3891.06 1453.12C3889.77 1453.12 3888.36 1452.39 3886.91 1450.98C3885.46 1449.58 3883.74 1447.96 3881.75 1446.24C3879.79 1444.52 3877.4 1442.9 3874.66 1441.5C3871.92 1440.09 3868.63 1439.36 3864.8 1439.36C3857.28 1439.36 3851.57 1443.22 3847.58 1450.88C3843.62 1458.59 3841.63 1469.85 3841.63 1484.7C3841.63 1492 3842.14 1498.46 3843.12 1504.09C3844.13 1509.67 3845.58 1514.36 3847.54 1518.11C3849.49 1521.86 3851.92 1524.73 3854.86 1526.6C3857.83 1528.48 3861.24 1529.42 3865.15 1529.42C3869.1 1529.42 3872.55 1528.64 3875.41 1527.02C3878.26 1525.46 3880.77 1523.69 3882.92 1521.76C3885.03 1519.83 3886.83 1518.06 3888.32 1516.49C3889.77 1514.88 3890.98 1514.1 3891.96 1514.1C3892.67 1514.1 3893.21 1514.36 3893.68 1514.88C3894.15 1515.4 3894.51 1516.34 3894.78 1517.69C3895.05 1519.1 3895.25 1520.87 3895.41 1523.01C3895.56 1525.15 3895.64 1527.91 3895.64 1531.29ZM3975.8 1558.19L3963.39 1606.34C3962.69 1608.9 3960.85 1610.72 3957.79 1611.87C3954.74 1612.96 3950.28 1613.54 3944.41 1613.54C3941.35 1613.54 3938.89 1613.38 3937.09 1613.02C3935.25 1612.65 3933.88 1612.08 3932.94 1611.24C3932.04 1610.41 3931.53 1609.42 3931.45 1608.22C3931.37 1606.97 3931.61 1605.51 3932.16 1603.79L3945.78 1558.19C3944.8 1557.56 3943.9 1556.62 3943.12 1555.37C3942.29 1554.07 3941.71 1552.72 3941.32 1551.31L3906.21 1426.02C3905.23 1422.48 3904.72 1419.71 3904.72 1417.84C3904.72 1415.96 3905.19 1414.5 3906.09 1413.41C3906.99 1412.36 3908.56 1411.63 3910.71 1411.22C3912.9 1410.8 3915.76 1410.59 3919.36 1410.59C3922.61 1410.59 3925.19 1410.65 3927.11 1410.8C3929.03 1410.96 3930.51 1411.38 3931.57 1411.95C3932.63 1412.57 3933.45 1413.51 3933.96 1414.81C3934.5 1416.07 3935.01 1417.89 3935.56 1420.23L3959.63 1511.44L3959.99 1511.44L3981.82 1418.41C3982.29 1415.75 3982.88 1413.98 3983.63 1413.09C3984.33 1412.26 3985.54 1411.63 3987.23 1411.22C3988.91 1410.8 3991.88 1410.59 3996.07 1410.59C3999.4 1410.59 4002.14 1410.8 4004.29 1411.22C4006.48 1411.63 4008.09 1412.36 4009.14 1413.51C4010.16 1414.61 4010.67 1416.12 4010.67 1417.99C4010.67 1419.87 4010.4 1422.11 4009.77 1424.66L3975.8 1558.19ZM4058.89 1557.56C4058.89 1568.25 4058.19 1576.9 4056.82 1583.52C4055.45 1590.14 4053.37 1595.66 4050.59 1600.19C4047.77 1604.73 4044.29 1608.12 4040.06 1610.41C4035.88 1612.7 4030.94 1613.85 4025.27 1613.85C4022.14 1613.85 4019.48 1613.59 4017.25 1613.02C4015.02 1612.44 4013.41 1611.87 4012.43 1611.24C4011.45 1610.62 4010.75 1609.84 4010.36 1608.95C4010.01 1608.01 4009.73 1606.97 4009.57 1605.77C4009.42 1604.62 4009.3 1603.27 4009.22 1601.81C4009.14 1600.35 4009.1 1598.42 4009.1 1596.08C4009.1 1593.21 4009.14 1590.81 4009.26 1588.94C4009.38 1587.06 4009.61 1585.55 4009.89 1584.4C4010.2 1583.26 4010.55 1582.47 4010.95 1581.95C4011.3 1581.43 4011.81 1581.17 4012.43 1581.17C4012.78 1581.17 4013.57 1581.33 4014.74 1581.59C4015.96 1581.85 4017.21 1581.95 4018.58 1581.95C4020.57 1581.95 4022.29 1581.54 4023.74 1580.75C4025.15 1579.92 4026.37 1578.67 4027.27 1576.9C4028.17 1575.13 4028.87 1572.83 4029.3 1570.07C4029.77 1567.31 4030.01 1562.88 4030.01 1556.83L4030.01 1417C4030.01 1416.01 4030.24 1415.13 4030.71 1414.35C4031.14 1413.56 4031.92 1412.89 4032.98 1412.36C4034.08 1411.79 4035.52 1411.38 4037.36 1411.06C4039.2 1410.75 4041.55 1410.59 4044.41 1410.59C4047.23 1410.59 4049.57 1410.75 4051.42 1411.06C4053.25 1411.38 4054.74 1411.79 4055.84 1412.36C4056.97 1412.89 4057.76 1413.56 4058.19 1414.35C4058.66 1415.13 4058.89 1416.01 4058.89 1417L4058.89 1557.56L4058.89 1557.56ZM4061 1370.41C4061 1378.18 4059.83 1383.49 4057.48 1386.46C4055.17 1389.43 4050.75 1390.89 4044.21 1390.89C4037.79 1390.89 4033.41 1389.49 4031.1 1386.62C4028.79 1383.75 4027.66 1378.59 4027.66 1371.19C4027.66 1363.43 4028.83 1358.06 4031.22 1355.04C4033.61 1352.07 4037.99 1350.55 4044.45 1350.55C4050.95 1350.55 4055.37 1352.01 4057.6 1354.93C4059.87 1357.8 4061 1362.96 4061 1370.41ZM4185.55 1553.03C4185.55 1554.02 4185.31 1554.9 4184.84 1555.69C4184.41 1556.47 4183.63 1557.09 4182.57 1557.61C4181.47 1558.08 4179.99 1558.5 4178.11 1558.76C4176.23 1559.02 4173.92 1559.13 4171.18 1559.13C4168.32 1559.13 4165.97 1559.02 4164.1 1558.76C4162.22 1558.5 4160.73 1558.08 4159.63 1557.61C4158.58 1557.09 4157.8 1556.47 4157.36 1555.69C4156.9 1554.9 4156.66 1554.02 4156.66 1553.03L4156.66 1475.32C4156.66 1468.7 4156.31 1463.49 4155.57 1459.74C4154.86 1455.93 4153.8 1452.7 4152.43 1450.05C4151.06 1447.34 4149.26 1445.25 4147.11 1443.74C4144.92 1442.28 4142.41 1441.55 4139.52 1441.55C4135.84 1441.55 4132.16 1443.32 4128.4 1446.92C4124.68 1450.46 4120.77 1455.67 4116.74 1462.45L4116.74 1553.03C4116.74 1554.02 4116.5 1554.9 4116.03 1555.69C4115.6 1556.47 4114.82 1557.09 4113.69 1557.61C4112.59 1558.08 4111.1 1558.5 4109.3 1558.76C4107.46 1559.02 4105.11 1559.13 4102.3 1559.13C4099.48 1559.13 4097.13 1559.02 4095.29 1558.76C4093.49 1558.5 4092 1558.08 4090.91 1557.61C4089.77 1557.09 4088.99 1556.47 4088.56 1555.69C4088.09 1554.9 4087.85 1554.02 4087.85 1553.03L4087.85 1416.69C4087.85 1415.7 4088.05 1414.81 4088.44 1414.03C4088.79 1413.25 4089.5 1412.63 4090.48 1412.1C4091.49 1411.63 4092.75 1411.22 4094.31 1410.96C4095.88 1410.7 4097.87 1410.59 4100.22 1410.59C4102.69 1410.59 4104.68 1410.7 4106.29 1410.96C4107.89 1411.22 4109.15 1411.63 4110.05 1412.1C4110.91 1412.63 4111.53 1413.25 4111.92 1414.03C4112.32 1414.81 4112.51 1415.7 4112.51 1416.69L4112.51 1432.43C4118.15 1424.3 4123.9 1418.25 4129.77 1414.19C4135.6 1410.12 4141.71 1408.09 4148.05 1408.09C4155.02 1408.09 4160.89 1409.6 4165.66 1412.68C4170.44 1415.7 4174.27 1419.87 4177.25 1425.13C4180.18 1430.34 4182.3 1436.49 4183.59 1443.53C4184.88 1450.57 4185.55 1459.01 4185.55 1468.86L4185.55 1553.03ZM4317.21 1483.5C4317.21 1495.07 4316.08 1505.65 4313.77 1515.24C4311.46 1524.78 4308.01 1533.01 4303.32 1539.95C4298.66 1546.88 4292.83 1552.19 4285.78 1556C4278.74 1559.75 4270.52 1561.63 4261.12 1561.63C4252 1561.63 4244.1 1559.96 4237.37 1556.57C4230.63 1553.24 4225.04 1548.34 4220.61 1541.93C4216.19 1535.52 4212.9 1527.65 4210.75 1518.27C4208.6 1508.94 4207.54 1498.25 4207.54 1486.22C4207.54 1474.64 4208.71 1464.01 4211.03 1454.42C4213.37 1444.78 4216.86 1436.55 4221.55 1429.67C4226.21 1422.84 4232.04 1417.52 4239.05 1413.72C4246.02 1409.97 4254.23 1408.09 4263.63 1408.09C4272.83 1408.09 4280.77 1409.76 4287.5 1413.04C4294.24 1416.38 4299.79 1421.22 4304.18 1427.63C4308.6 1434.04 4311.85 1441.92 4314 1451.3C4316.15 1460.62 4317.21 1471.36 4317.21 1483.5ZM4287.62 1485.02C4287.62 1478.29 4287.23 1472.09 4286.41 1466.46C4285.58 1460.78 4284.25 1455.88 4282.3 1451.71C4280.38 1447.54 4277.84 1444.26 4274.66 1441.92C4271.46 1439.57 4267.46 1438.42 4262.61 1438.42C4258.3 1438.42 4254.55 1439.47 4251.3 1441.55C4248.09 1443.64 4245.43 1446.71 4243.35 1450.72C4241.28 1454.74 4239.71 1459.58 4238.7 1465.21C4237.64 1470.89 4237.13 1477.3 4237.13 1484.55C4237.13 1491.27 4237.56 1497.47 4238.38 1503.1C4239.24 1508.78 4240.61 1513.68 4242.49 1517.85C4244.37 1522.02 4246.92 1525.25 4250.16 1527.54C4253.37 1529.84 4257.36 1530.98 4262.14 1530.98C4266.52 1530.98 4270.32 1529.94 4273.57 1527.86C4276.78 1525.77 4279.44 1522.75 4281.52 1518.79C4283.59 1514.77 4285.11 1509.98 4286.13 1504.35C4287.11 1498.67 4287.62 1492.26 4287.62 1485.02ZM4390.87 1481.26C4390.87 1487.2 4390.44 1491.32 4389.62 1493.67C4388.76 1496.01 4387.43 1497.21 4385.59 1497.21L4337.8 1497.21C4335.88 1497.21 4334.51 1496.01 4333.65 1493.61C4332.83 1491.22 4332.4 1487.1 4332.4 1481.26C4332.4 1475.53 4332.83 1471.52 4333.65 1469.17C4334.51 1466.83 4335.88 1465.63 4337.8 1465.63L4385.59 1465.63C4386.52 1465.63 4387.31 1465.89 4387.93 1466.41C4388.6 1466.93 4389.15 1467.76 4389.62 1469.02C4390.05 1470.21 4390.4 1471.88 4390.6 1473.91C4390.79 1475.95 4390.87 1478.4 4390.87 1481.26ZM4586.53 1552.72C4586.53 1553.71 4586.33 1554.64 4585.9 1555.48C4585.47 1556.26 4584.69 1556.94 4583.59 1557.46C4582.5 1557.93 4581.01 1558.34 4579.17 1558.66C4577.33 1558.97 4574.98 1559.13 4572.16 1559.13C4569.38 1559.13 4567.07 1558.97 4565.23 1558.66C4563.4 1558.34 4561.95 1557.93 4560.85 1557.46C4559.79 1556.94 4559.01 1556.26 4558.58 1555.48C4558.11 1554.64 4557.88 1553.71 4557.88 1552.72L4557.88 1391.83L4557.64 1391.83L4514.78 1552.56C4514.47 1553.86 4514 1554.96 4513.3 1555.84C4512.59 1556.73 4511.69 1557.41 4510.48 1557.93C4509.3 1558.4 4507.78 1558.76 4505.98 1558.92C4504.14 1559.07 4501.91 1559.13 4499.32 1559.13C4496.7 1559.13 4494.51 1559.02 4492.67 1558.76C4490.83 1558.5 4489.3 1558.08 4488.13 1557.51C4486.96 1556.94 4486.02 1556.26 4485.31 1555.48C4484.65 1554.64 4484.18 1553.65 4483.94 1552.56L4442.57 1391.83L4442.34 1391.83L4442.34 1552.72C4442.34 1553.71 4442.14 1554.64 4441.71 1555.48C4441.28 1556.26 4440.5 1556.94 4439.36 1557.46C4438.19 1557.93 4436.7 1558.34 4434.9 1558.66C4433.1 1558.97 4430.79 1559.13 4427.97 1559.13C4425.19 1559.13 4422.89 1558.97 4421.05 1558.66C4419.21 1558.34 4417.72 1557.93 4416.62 1557.46C4415.53 1556.94 4414.74 1556.26 4414.31 1555.48C4413.88 1554.64 4413.69 1553.71 4413.69 1552.72L4413.69 1376.61C4413.69 1371.4 4414.7 1367.44 4416.78 1364.68C4418.85 1361.92 4421.59 1360.56 4425.08 1360.56L4444.8 1360.56C4448.33 1360.56 4451.38 1360.93 4453.88 1361.71C4456.43 1362.49 4458.62 1363.74 4460.46 1365.51C4462.26 1367.28 4463.83 1369.63 4465.04 1372.55C4466.25 1375.47 4467.35 1379.06 4468.25 1383.34L4500.22 1501.07L4500.69 1501.07L4533.81 1383.6C4534.78 1379.32 4535.88 1375.73 4537.05 1372.76C4538.27 1369.84 4539.64 1367.44 4541.2 1365.62C4542.77 1363.79 4544.65 1362.49 4546.76 1361.71C4548.91 1360.93 4551.42 1360.56 4554.24 1360.56L4574.59 1360.56C4576.66 1360.56 4578.42 1360.93 4579.91 1361.65C4581.4 1362.33 4582.65 1363.37 4583.59 1364.78C4584.57 1366.14 4585.27 1367.81 4585.78 1369.79C4586.29 1371.77 4586.53 1374.06 4586.53 1376.61L4586.53 1552.72ZM4711.69 1480.95C4711.69 1485.64 4710.91 1489.08 4709.35 1491.32C4707.78 1493.56 4705.63 1494.71 4702.85 1494.71L4640.54 1494.71C4640.54 1500.5 4641.05 1505.71 4642.1 1510.45C4643.12 1515.14 4644.77 1519.15 4647 1522.44C4649.27 1525.72 4652.16 1528.22 4655.72 1529.94C4659.29 1531.66 4663.51 1532.55 4668.48 1532.55C4673.53 1532.55 4677.96 1532.08 4681.79 1531.09C4685.59 1530.1 4688.91 1529.05 4691.69 1527.86C4694.47 1526.66 4696.78 1525.62 4698.62 1524.63C4700.46 1523.63 4701.95 1523.17 4703.08 1523.17C4703.79 1523.17 4704.38 1523.32 4704.81 1523.69C4705.28 1524.05 4705.67 1524.68 4705.98 1525.62C4706.25 1526.5 4706.49 1527.8 4706.61 1529.47C4706.72 1531.14 4706.76 1533.28 4706.76 1535.78C4706.76 1538.02 4706.72 1539.95 4706.64 1541.51C4706.57 1543.07 4706.45 1544.43 4706.29 1545.52C4706.14 1546.67 4705.94 1547.61 4705.63 1548.34C4705.32 1549.12 4704.92 1549.85 4704.41 1550.58C4703.91 1551.26 4702.58 1552.25 4700.34 1553.5C4698.11 1554.75 4695.3 1555.95 4691.85 1557.15C4688.41 1558.34 4684.49 1559.39 4680.07 1560.27C4675.65 1561.16 4670.91 1561.63 4665.86 1561.63C4656.74 1561.63 4648.8 1560.12 4641.95 1557.04C4635.14 1554.02 4629.42 1549.38 4624.81 1543.18C4620.23 1536.98 4616.82 1529.11 4614.55 1519.67C4612.32 1510.19 4611.19 1499.09 4611.19 1486.37C4611.19 1474.28 4612.36 1463.39 4614.75 1453.64C4617.09 1443.95 4620.54 1435.71 4625.08 1428.94C4629.58 1422.16 4635.06 1417 4641.52 1413.46C4648.01 1409.86 4655.3 1408.09 4663.4 1408.09C4671.97 1408.09 4679.29 1409.76 4685.35 1413.15C4691.46 1416.48 4696.43 1421.17 4700.34 1427.11C4704.22 1433.06 4707.11 1440.14 4708.96 1448.27C4710.79 1456.4 4711.7 1465.26 4711.7 1474.85L4711.7 1480.95L4711.69 1480.95ZM4683.75 1470.01C4683.98 1459.22 4682.34 1450.72 4678.86 1444.57C4675.37 1438.37 4670.01 1435.3 4662.73 1435.3C4659.05 1435.3 4655.84 1436.23 4653.14 1438.06C4650.4 1439.88 4648.13 1442.33 4646.33 1445.46C4644.53 1448.59 4643.16 1452.23 4642.22 1456.46C4641.24 1460.73 4640.69 1465.21 4640.54 1470.01L4683.75 1470.01ZM4832.52 1553.03C4832.52 1554.12 4832.32 1555.06 4831.93 1555.84C4831.58 1556.62 4830.91 1557.25 4830.01 1557.77C4829.07 1558.24 4827.82 1558.6 4826.25 1558.81C4824.69 1559.02 4822.77 1559.13 4820.5 1559.13C4818.03 1559.13 4816.04 1559.02 4814.51 1558.81C4812.99 1558.6 4811.77 1558.24 4810.79 1557.77C4809.86 1557.25 4809.15 1556.57 4808.76 1555.84C4808.33 1555.06 4808.09 1554.12 4808.09 1552.98L4808.09 1537.81C4802.85 1545.37 4797.29 1551.2 4791.54 1555.37C4785.75 1559.54 4779.36 1561.63 4772.32 1561.63C4764.53 1561.63 4757.92 1559.59 4752.56 1555.58C4747.15 1551.57 4742.77 1546.15 4739.37 1539.32C4735.96 1532.55 4733.49 1524.57 4731.97 1515.45C4730.44 1506.33 4729.66 1496.74 4729.66 1486.68C4729.66 1474.59 4730.64 1463.7 4732.59 1454.01C4734.55 1444.36 4737.37 1436.13 4741.13 1429.3C4744.88 1422.48 4749.54 1417.26 4755.14 1413.56C4760.7 1409.91 4767.12 1408.09 4774.4 1408.09C4780.11 1408.09 4785.31 1409.66 4789.97 1412.73C4794.67 1415.86 4799.29 1420.39 4803.87 1426.38L4803.87 1352.74C4803.87 1351.7 4804.06 1350.81 4804.49 1349.98C4804.92 1349.2 4805.67 1348.47 4806.8 1347.95C4807.9 1347.37 4809.39 1346.96 4811.19 1346.65C4813.02 1346.33 4815.37 1346.18 4818.19 1346.18C4821.01 1346.18 4823.36 1346.33 4825.2 1346.65C4827 1346.96 4828.49 1347.37 4829.54 1347.95C4830.6 1348.47 4831.38 1349.2 4831.81 1349.98C4832.28 1350.81 4832.52 1351.7 4832.52 1352.74L4832.52 1553.03ZM4803.87 1461.98C4799.76 1455.05 4795.76 1449.79 4792.01 1446.08C4788.21 1442.44 4784.26 1440.61 4780.11 1440.61C4776.39 1440.61 4773.14 1441.86 4770.44 1444.36C4767.7 1446.87 4765.55 1450.15 4763.91 1454.32C4762.26 1458.54 4761.01 1463.18 4760.23 1468.29C4759.4 1473.45 4759.01 1478.71 4759.01 1484.08C4759.01 1489.81 4759.37 1495.34 4760.03 1500.7C4760.73 1506.12 4761.87 1510.92 4763.44 1515.14C4765 1519.36 4767.08 1522.75 4769.7 1525.3C4772.28 1527.86 4775.57 1529.11 4779.56 1529.11C4781.52 1529.11 4783.47 1528.74 4785.35 1527.96C4787.23 1527.18 4789.11 1525.98 4791.07 1524.21C4793.03 1522.49 4795.02 1520.25 4797.1 1517.43C4799.17 1514.62 4801.44 1511.23 4803.87 1507.17L4803.87 1461.98Z" fill="#224a84" fill-rule="nonzero" opacity="1" stroke="none" vectornator:layerName="path"/>
<path d="M4920.7 1558.19L4908.29 1606.34C4907.59 1608.9 4905.75 1610.72 4902.69 1611.87C4899.64 1612.96 4895.18 1613.54 4889.31 1613.54C4886.25 1613.54 4883.79 1613.38 4881.99 1613.02C4880.15 1612.65 4878.78 1612.08 4877.84 1611.24C4876.94 1610.41 4876.43 1609.42 4876.35 1608.22C4876.27 1606.97 4876.51 1605.51 4877.06 1603.79L4890.68 1558.19C4889.7 1557.56 4888.8 1556.62 4888.02 1555.37C4887.19 1554.07 4886.61 1552.72 4886.21 1551.31L4851.11 1426.02C4850.13 1422.48 4849.62 1419.71 4849.62 1417.84C4849.62 1415.96 4850.09 1414.5 4850.99 1413.41C4851.89 1412.36 4853.46 1411.63 4855.61 1411.22C4857.8 1410.8 4860.66 1410.59 4864.26 1410.59C4867.51 1410.59 4870.09 1410.65 4872.01 1410.8C4873.92 1410.96 4875.41 1411.38 4876.47 1411.95C4877.53 1412.57 4878.35 1413.51 4878.86 1414.81C4879.41 1416.07 4879.91 1417.89 4880.46 1420.23L4904.53 1511.44L4904.88 1511.44L4926.72 1418.41C4927.19 1415.75 4927.78 1413.98 4928.52 1413.09C4929.23 1412.26 4930.44 1411.63 4932.13 1411.22C4933.81 1410.8 4936.78 1410.59 4940.97 1410.59C4944.3 1410.59 4947.04 1410.8 4949.19 1411.22C4951.38 1411.63 4952.99 1412.36 4954.04 1413.51C4955.06 1414.61 4955.57 1416.12 4955.57 1417.99C4955.57 1419.87 4955.3 1422.11 4954.67 1424.66L4920.7 1558.19ZM5047.08 1531.29C5047.08 1533.95 5047.04 1536.14 5046.92 1537.97C5046.8 1539.74 5046.65 1541.25 5046.45 1542.5C5046.26 1543.7 5046.02 1544.69 5045.75 1545.47C5045.47 1546.25 5044.89 1547.19 5043.99 1548.39C5043.05 1549.54 5041.48 1551 5039.29 1552.66C5037.06 1554.33 5034.55 1555.84 5031.7 1557.2C5028.88 1558.5 5025.83 1559.59 5022.5 1560.38C5019.17 1561.21 5015.73 1561.63 5012.21 1561.63C5004.34 1561.63 4997.37 1560.01 4991.3 1556.73C4985.2 1553.5 4980.11 1548.65 4975.96 1542.29C4971.85 1535.93 4968.72 1528.12 4966.65 1518.94C4964.53 1509.77 4963.48 1499.3 4963.48 1487.47C4963.48 1473.81 4964.77 1461.98 4967.31 1452.08C4969.9 1442.12 4973.46 1433.89 4978.04 1427.37C4982.62 1420.86 4988.06 1416.01 4994.32 1412.83C5000.58 1409.66 5007.47 1408.09 5014.98 1408.09C5018.04 1408.09 5021.01 1408.46 5023.99 1409.19C5026.92 1409.86 5029.66 1410.85 5032.24 1412.05C5034.79 1413.3 5037.1 1414.66 5039.09 1416.17C5041.13 1417.73 5042.58 1419.04 5043.4 1420.18C5044.26 1421.28 5044.85 1422.21 5045.2 1423C5045.51 1423.78 5045.79 1424.77 5045.98 1425.97C5046.18 1427.22 5046.33 1428.73 5046.45 1430.5C5046.57 1432.33 5046.61 1434.46 5046.61 1437.02C5046.61 1442.96 5046.26 1447.13 5045.47 1449.52C5044.69 1451.92 5043.71 1453.12 5042.5 1453.12C5041.21 1453.12 5039.8 1452.39 5038.35 1450.98C5036.9 1449.58 5035.18 1447.96 5033.18 1446.24C5031.23 1444.52 5028.84 1442.9 5026.1 1441.5C5023.36 1440.09 5020.07 1439.36 5016.24 1439.36C5008.72 1439.36 5003.01 1443.22 4999.02 1450.88C4995.06 1458.59 4993.06 1469.85 4993.06 1484.7C4993.06 1492 4993.58 1498.46 4994.55 1504.09C4995.57 1509.67 4997.02 1514.36 4998.98 1518.11C5000.93 1521.86 5003.36 1524.73 5006.29 1526.6C5009.27 1528.48 5012.67 1529.42 5016.59 1529.42C5020.54 1529.42 5023.99 1528.64 5026.84 1527.02C5029.7 1525.46 5032.21 1523.69 5034.36 1521.76C5036.47 1519.83 5038.27 1518.06 5039.76 1516.49C5041.21 1514.88 5042.42 1514.1 5043.4 1514.1C5044.1 1514.1 5044.65 1514.36 5045.12 1514.88C5045.59 1515.4 5045.94 1516.34 5046.22 1517.69C5046.49 1519.1 5046.69 1520.87 5046.84 1523.01C5047 1525.15 5047.08 1527.91 5047.08 1531.29ZM5139.72 1542.4C5139.72 1545.37 5139.6 1547.87 5139.37 1550.01C5139.13 1552.09 5138.82 1553.76 5138.47 1554.96C5138.08 1556.21 5137.57 1557.04 5136.98 1557.51C5136.36 1557.98 5135.65 1558.19 5134.91 1558.19L5067.94 1558.19C5065.9 1558.19 5064.3 1557.25 5063.2 1555.43C5062.07 1553.6 5061.52 1550.58 5061.52 1546.41L5061.52 1539.32C5061.52 1537.5 5061.56 1535.83 5061.68 1534.37C5061.79 1532.91 5062.03 1531.45 5062.38 1530.1C5062.73 1528.69 5063.2 1527.28 5063.75 1525.88C5064.34 1524.42 5065.08 1522.85 5066.02 1521.13L5104.5 1442.49L5068.02 1442.49C5066.57 1442.49 5065.39 1441.24 5064.5 1438.79C5063.59 1436.34 5063.16 1432.43 5063.16 1427.01C5063.16 1424.04 5063.24 1421.59 5063.44 1419.56C5063.63 1417.58 5063.95 1416.01 5064.3 1414.81C5064.69 1413.67 5065.2 1412.83 5065.83 1412.31C5066.41 1411.79 5067.16 1411.53 5067.98 1411.53L5130.68 1411.53C5131.77 1411.53 5132.68 1411.69 5133.46 1412C5134.2 1412.31 5134.87 1412.83 5135.34 1413.67C5135.85 1414.5 5136.24 1415.6 5136.51 1417.06C5136.79 1418.46 5136.9 1420.23 5136.9 1422.42L5136.9 1429.93C5136.9 1431.96 5136.82 1433.79 5136.67 1435.35C5136.51 1436.91 5136.28 1438.42 5135.96 1439.88C5135.69 1441.29 5135.22 1442.75 5134.67 1444.16C5134.08 1445.56 5133.42 1447.13 5132.64 1448.74L5094.4 1527.23L5134.91 1527.23C5135.57 1527.23 5136.24 1527.44 5136.86 1527.86C5137.45 1528.27 5137.96 1529 5138.39 1530.15C5138.82 1531.24 5139.13 1532.81 5139.37 1534.84C5139.6 1536.82 5139.72 1539.32 5139.72 1542.4ZM5259.13 1553.03C5259.13 1554.02 5258.9 1554.9 5258.43 1555.69C5258 1556.47 5257.22 1557.09 5256.16 1557.61C5255.06 1558.08 5253.58 1558.5 5251.7 1558.76C5249.82 1559.02 5247.51 1559.13 5244.77 1559.13C5241.91 1559.13 5239.56 1559.02 5237.69 1558.76C5235.81 1558.5 5234.32 1558.08 5233.22 1557.61C5232.17 1557.09 5231.38 1556.47 5230.95 1555.69C5230.48 1554.9 5230.25 1554.02 5230.25 1553.03L5230.25 1475.32C5230.25 1468.7 5229.9 1463.49 5229.15 1459.74C5228.45 1455.93 5227.39 1452.7 5226.02 1450.05C5224.65 1447.34 5222.85 1445.25 5220.7 1443.74C5218.51 1442.28 5216 1441.55 5213.11 1441.55C5209.43 1441.55 5205.75 1443.32 5201.99 1446.92C5198.27 1450.46 5194.36 1455.67 5190.33 1462.45L5190.33 1553.03C5190.33 1554.02 5190.09 1554.9 5189.62 1555.69C5189.19 1556.47 5188.41 1557.09 5187.27 1557.61C5186.18 1558.08 5184.69 1558.5 5182.89 1558.76C5181.05 1559.02 5178.7 1559.13 5175.88 1559.13C5173.07 1559.13 5170.72 1559.02 5168.88 1558.76C5167.08 1558.5 5165.59 1558.08 5164.5 1557.61C5163.36 1557.09 5162.58 1556.47 5162.15 1555.69C5161.68 1554.9 5161.44 1554.02 5161.44 1553.03L5161.44 1416.69C5161.44 1415.7 5161.64 1414.81 5162.03 1414.03C5162.38 1413.25 5163.09 1412.63 5164.07 1412.1C5165.08 1411.63 5166.33 1411.22 5167.9 1410.96C5169.47 1410.7 5171.46 1410.59 5173.81 1410.59C5176.28 1410.59 5178.27 1410.7 5179.88 1410.96C5181.48 1411.22 5182.73 1411.63 5183.63 1412.1C5184.5 1412.63 5185.12 1413.25 5185.51 1414.03C5185.9 1414.81 5186.1 1415.7 5186.1 1416.69L5186.1 1432.43C5191.74 1424.3 5197.49 1418.25 5203.36 1414.19C5209.19 1410.12 5215.3 1408.09 5221.64 1408.09C5228.61 1408.09 5234.48 1409.6 5239.25 1412.68C5244.03 1415.7 5247.86 1419.87 5250.84 1425.13C5253.77 1430.34 5255.89 1436.49 5257.18 1443.53C5258.47 1450.57 5259.13 1459.01 5259.13 1468.86L5259.13 1553.03ZM5381.88 1480.95C5381.88 1485.64 5381.09 1489.08 5379.53 1491.32C5377.96 1493.56 5375.81 1494.71 5373.03 1494.71L5310.72 1494.71C5310.72 1500.5 5311.23 1505.71 5312.28 1510.45C5313.3 1515.14 5314.95 1519.15 5317.18 1522.44C5319.45 1525.72 5322.34 1528.22 5325.91 1529.94C5329.47 1531.66 5333.69 1532.55 5338.67 1532.55C5343.71 1532.55 5348.14 1532.08 5351.97 1531.09C5355.77 1530.1 5359.09 1529.05 5361.87 1527.86C5364.65 1526.66 5366.96 1525.62 5368.8 1524.63C5370.64 1523.63 5372.13 1523.17 5373.26 1523.17C5373.97 1523.17 5374.56 1523.32 5374.99 1523.69C5375.46 1524.05 5375.85 1524.68 5376.16 1525.62C5376.43 1526.5 5376.67 1527.8 5376.79 1529.47C5376.9 1531.14 5376.94 1533.28 5376.94 1535.78C5376.94 1538.02 5376.9 1539.95 5376.83 1541.51C5376.75 1543.07 5376.63 1544.43 5376.47 1545.52C5376.32 1546.67 5376.12 1547.61 5375.81 1548.34C5375.49 1549.12 5375.1 1549.85 5374.59 1550.58C5374.08 1551.26 5372.76 1552.25 5370.52 1553.5C5368.29 1554.75 5365.48 1555.95 5362.03 1557.15C5358.59 1558.34 5354.67 1559.39 5350.25 1560.27C5345.83 1561.16 5341.09 1561.63 5336.04 1561.63C5326.92 1561.63 5318.98 1560.12 5312.13 1557.04C5305.32 1554.02 5299.6 1549.38 5294.99 1543.18C5290.41 1536.98 5287 1529.11 5284.73 1519.67C5282.5 1510.19 5281.37 1499.09 5281.37 1486.37C5281.37 1474.28 5282.54 1463.39 5284.93 1453.64C5287.27 1443.95 5290.72 1435.71 5295.26 1428.94C5299.76 1422.16 5305.24 1417 5311.7 1413.46C5318.19 1409.86 5325.47 1408.09 5333.58 1408.09C5342.15 1408.09 5349.47 1409.76 5355.53 1413.15C5361.64 1416.48 5366.61 1421.17 5370.52 1427.11C5374.4 1433.06 5377.29 1440.14 5379.13 1448.27C5380.97 1456.4 5381.88 1465.26 5381.88 1474.85L5381.88 1480.95L5381.88 1480.95ZM5353.93 1470.01C5354.16 1459.22 5352.52 1450.72 5349.04 1444.57C5345.55 1438.37 5340.19 1435.3 5332.91 1435.3C5329.23 1435.3 5326.02 1436.23 5323.32 1438.06C5320.58 1439.88 5318.31 1442.33 5316.51 1445.46C5314.71 1448.59 5313.34 1452.23 5312.4 1456.46C5311.42 1460.73 5310.88 1465.21 5310.72 1470.01L5353.93 1470.01Z" fill="#224a84" fill-rule="nonzero" opacity="1" stroke="none" vectornator:layerName="path"/>
</g>
</g>
</g>
</svg>
